<svg xmlns="http://www.w3.org/2000/svg" width="47.938" height="44" viewBox="0 0 47.938 44">
  <defs>
    <style>
      .cls-1 {
        fill: #cbcbcb;
        fill-rule: evenodd;
      }
    </style>
  </defs>
  <path id="_5" data-name="5" class="cls-1" d="M912.808,743.43l-1.895-5.762a1,1,0,0,0-.952-0.69H906.9l-1.746-5.321a1,1,0,0,0-.954-0.689h-3.377l-1.746-5.321a1,1,0,0,0-.954-0.69H895l-2.218-5.453a1,1,0,1,0-1.857.753l1.91,4.7H879.862a1,1,0,0,0-.954.69l-1.746,5.321H874.1a1,1,0,0,0-.952.689l-1.748,5.321h-3.377a1,1,0,0,0-.952.69l-1.974,6.01a1,1,0,0,0,.952,1.314H876.4a0.174,0.174,0,0,0,.04,0,0.96,0.96,0,0,1,1.445,0h10.358a0.169,0.169,0,0,0,.039,0,0.961,0.961,0,0,1,1.448,0h10.358a0.169,0.169,0,0,0,.039,0,0.96,0.96,0,0,1,1.445,0h10.36a0.166,0.166,0,0,0,.039,0A1,1,0,0,0,912.808,743.43Zm-8.024-6.452H897.2l1.317-4.007h4.956Zm-18.51,0h-0.923l1.317-4.007h4.957l1.316,4.007h-6.667Zm-3.066,0-1.317-4.007h2.666l-1.316,4.007h-0.033Zm5.766-6.01-1.315-4.008h2.662l-1.315,4.008h-0.032Zm6.079,6.01-1.318-4.007H896.4l-1.316,4.007h-0.033Zm-0.727-10.018h3.066l1.314,4.008h-7.587l1.315-4.008h1.892Zm-13.737,0h4.958l1.315,4.008h-7.588Zm-5.766,6.011h4.957l1.316,4.007h-7.589Zm-7.393,10.017,1.316-4.006H873.7l1.316,4.006H867.43Zm9.716,0.048-1.332-4.054h2.663Zm2.128-.048,1.315-4.006h4.958l1.315,4.006h-7.588Zm9.716,0.05-1.331-4.056h2.662Zm2.129-.05,1.315-4.006h4.958l1.314,4.006h-7.587Zm9.716,0.05-1.331-4.056h2.664Zm2.127-.05,1.316-4.006h4.957l1.316,4.006h-7.589Zm-10.92-32.066c1.591,0.184,4.449.808,5.346,1.7s1.522,3.749,1.706,5.34a1,1,0,0,0,2,0c0.182-1.589.809-4.443,1.706-5.339s3.754-1.52,5.346-1.7a1,1,0,0,0,0-1.989c-1.59-.185-4.449-0.81-5.346-1.705s-1.522-3.75-1.706-5.34a1,1,0,0,0-2,0c-0.182,1.588-.809,4.443-1.706,5.339s-3.754,1.52-5.346,1.705A1,1,0,0,0,892.042,710.922Zm6.764-2.277a6.334,6.334,0,0,0,1.286-2.221,4.963,4.963,0,0,0,3.506,3.5,4.967,4.967,0,0,0-3.506,3.5,4.97,4.97,0,0,0-3.507-3.5A6.3,6.3,0,0,0,898.806,708.645Zm-19.947,10.209a3.511,3.511,0,0,1,4.11,4.1,1,1,0,0,0,1.994,0,7.358,7.358,0,0,1,.966-3.138,7.438,7.438,0,0,1,3.145-.966,1,1,0,0,0,0-1.99,3.511,3.511,0,0,1-4.111-4.106,1,1,0,0,0-1.994,0,3.511,3.511,0,0,1-4.11,4.106A1,1,0,0,0,878.859,718.854Zm4.563-1.54a3.308,3.308,0,0,0,.544-0.753,2.924,2.924,0,0,0,1.3,1.3,0.974,0.974,0,1,1-1.845.544A0.574,0.574,0,1,1,883.422,717.314Z" transform="translate(-865.031 -701)"/>
</svg>
