<svg xmlns="http://www.w3.org/2000/svg" width="48" height="47.969" viewBox="0 0 48 47.969">
  <defs>
    <style>
      .cls-1 {
        fill: #cbcbcb;
        fill-rule: evenodd;
      }
    </style>
  </defs>
  <path id="_6" data-name="6" class="cls-1" d="M948.091,742.984h13.8a1,1,0,0,0,0-2h-13.8A1,1,0,0,0,948.091,742.984Zm0-4.008h13.8a1,1,0,0,0,0-2h-13.8A1,1,0,0,0,948.091,738.976Zm25.924-32.05H966.5s0-.007-0.007-0.009l-4.355-5.349a2.008,2.008,0,0,0-1.418-.583H945.053a2.028,2.028,0,0,0-2.022,2.03v3.911h-7.043A5.028,5.028,0,0,0,931,711.982v13.849a5.028,5.028,0,0,0,4.986,5.057h38.027A5.027,5.027,0,0,0,979,725.831V711.982A5.027,5.027,0,0,0,974.015,706.926Zm-13.351-4.011,4.361,5.364V715H945.034l0.019-12.015ZM977,725.831a3.023,3.023,0,0,1-2.983,3.053H935.988A3.024,3.024,0,0,1,933,725.831V711.982a3.021,3.021,0,0,1,2.985-3.051h7.043v7.075a1,1,0,0,0,1,1h21.993a1,1,0,0,0,1-1v-7.075h6.989A3.02,3.02,0,0,1,977,711.982v13.849Zm-10.973,7.315a1,1,0,0,0-1,1l0.035,12.825-20.027-.026v-12.8a1,1,0,1,0-2,0v12.8a2,2,0,0,0,1.967,2.03H965.06a2,2,0,0,0,1.966-2.03v-12.8A1,1,0,0,0,966.025,733.146Zm5.253-9.914a1.049,1.049,0,0,0-.28.721,0.935,0.935,0,0,0,.3.7,1,1,0,0,0,1.7-.7,1.035,1.035,0,0,0-.3-0.721A1.046,1.046,0,0,0,971.278,723.232Z" transform="translate(-931 -701)"/>
</svg>
